<svg width="70" height="70" viewBox="0 0 70 70" fill="none" xmlns="http://www.w3.org/2000/svg">
<path d="M47.4863 31.2638C47.69 31.467 47.8516 31.7083 47.9619 31.9741C48.0721 32.2399 48.1289 32.5248 48.1289 32.8125C48.1289 33.1002 48.0721 33.3851 47.9619 33.6509C47.8516 33.9167 47.69 34.1581 47.4863 34.3613L34.3613 47.4863C34.1581 47.69 33.9167 47.8516 33.6509 47.9619C33.3851 48.0721 33.1002 48.1289 32.8125 48.1289C32.5248 48.1289 32.2399 48.0721 31.9741 47.9619C31.7083 47.8516 31.467 47.69 31.2638 47.4863L24.7013 40.9238C24.4979 40.7204 24.3365 40.4789 24.2265 40.2132C24.1164 39.9474 24.0597 39.6626 24.0597 39.375C24.0597 39.0874 24.1164 38.8026 24.2265 38.5368C24.3365 38.2711 24.4979 38.0296 24.7013 37.8263C25.112 37.4155 25.6691 37.1847 26.25 37.1847C26.5376 37.1847 26.8224 37.2414 27.0882 37.3515C27.3539 37.4615 27.5954 37.6229 27.7988 37.8263L32.8125 42.8444L44.3888 31.2638C44.592 31.06 44.8333 30.8984 45.0991 30.7881C45.3649 30.6779 45.6498 30.6211 45.9375 30.6211C46.2252 30.6211 46.5101 30.6779 46.7759 30.7881C47.0417 30.8984 47.2831 31.06 47.4863 31.2638V31.2638Z" fill="#EC4C4C"/>
<path d="M15.3125 0C15.8927 0 16.4491 0.230468 16.8593 0.640704C17.2695 1.05094 17.5 1.60734 17.5 2.1875V4.375H52.5V2.1875C52.5 1.60734 52.7305 1.05094 53.1407 0.640704C53.5509 0.230468 54.1073 0 54.6875 0C55.2677 0 55.8241 0.230468 56.2343 0.640704C56.6445 1.05094 56.875 1.60734 56.875 2.1875V4.375H61.25C63.5706 4.375 65.7962 5.29687 67.4372 6.93782C69.0781 8.57876 70 10.8044 70 13.125V61.25C70 63.5706 69.0781 65.7962 67.4372 67.4372C65.7962 69.0781 63.5706 70 61.25 70H8.75C6.42936 70 4.20376 69.0781 2.56282 67.4372C0.921873 65.7962 0 63.5706 0 61.25V13.125C0 10.8044 0.921873 8.57876 2.56282 6.93782C4.20376 5.29687 6.42936 4.375 8.75 4.375H13.125V2.1875C13.125 1.60734 13.3555 1.05094 13.7657 0.640704C14.1759 0.230468 14.7323 0 15.3125 0V0ZM4.375 17.5V61.25C4.375 62.4103 4.83594 63.5231 5.65641 64.3436C6.47688 65.1641 7.58968 65.625 8.75 65.625H61.25C62.4103 65.625 63.5231 65.1641 64.3436 64.3436C65.1641 63.5231 65.625 62.4103 65.625 61.25V17.5H4.375Z" fill="#EC4C4C"/>
</svg>
