<svg width="62" height="70" viewBox="0 0 62 70" fill="none" xmlns="http://www.w3.org/2000/svg">
<path d="M47.72 17.3688C48.0185 17.0641 48.3749 16.8221 48.7682 16.6569C49.1614 16.4917 49.5837 16.4066 50.0103 16.4066C50.4368 16.4066 50.8591 16.4917 51.2524 16.6569C51.6457 16.8221 52.002 17.0641 52.3006 17.3688C53.5518 18.6331 53.5693 20.6763 52.3443 21.9625L26.475 52.5438C26.1813 52.8663 25.8248 53.1255 25.4275 53.3056C25.0302 53.4856 24.6003 53.5827 24.1641 53.5909C23.728 53.5991 23.2947 53.5182 22.8909 53.3532C22.4871 53.1882 22.1212 52.9425 21.8156 52.6313L6.07435 36.68C5.46726 36.0609 5.1272 35.2284 5.1272 34.3613C5.1272 33.4942 5.46726 32.6616 6.07435 32.0425C6.37293 31.7379 6.72928 31.4958 7.12255 31.3306C7.51582 31.1654 7.9381 31.0803 8.36466 31.0803C8.79123 31.0803 9.21351 31.1654 9.60678 31.3306C10 31.4958 10.3564 31.7379 10.655 32.0425L24.0075 45.5744L47.6325 17.465C47.6597 17.4312 47.6889 17.3991 47.72 17.3688Z" fill="#2AD95B"/>
</svg>
