<svg width="70" height="70" viewBox="0 0 70 70" fill="none" xmlns="http://www.w3.org/2000/svg">
<g clip-path="url(#clip0_69_11)">
<path fill-rule="evenodd" clip-rule="evenodd" d="M13.5625 49C13.7663 48.7283 14.0305 48.5078 14.3342 48.3559C14.638 48.2041 14.9729 48.125 15.3125 48.125H26.25C26.8302 48.125 27.3866 48.3555 27.7968 48.7657C28.207 49.1759 28.4375 49.7323 28.4375 50.3125C28.4375 50.8927 28.207 51.4491 27.7968 51.8593C27.3866 52.2695 26.8302 52.5 26.25 52.5H16.4063L6.5625 65.625H63.4375L53.5938 52.5H43.75C43.1698 52.5 42.6134 52.2695 42.2032 51.8593C41.793 51.4491 41.5625 50.8927 41.5625 50.3125C41.5625 49.7323 41.793 49.1759 42.2032 48.7657C42.6134 48.3555 43.1698 48.125 43.75 48.125H54.6875C55.0271 48.125 55.362 48.2041 55.6658 48.3559C55.9695 48.5078 56.2337 48.7283 56.4375 49L69.5625 66.5C69.8062 66.825 69.9547 67.2114 69.9912 67.6161C70.0276 68.0207 69.9507 68.4274 69.7691 68.7908C69.5874 69.1541 69.3081 69.4597 68.9625 69.6733C68.617 69.8869 68.2187 70 67.8125 70H2.1875C1.78126 70 1.38304 69.8869 1.03746 69.6733C0.691892 69.4597 0.41262 69.1541 0.230942 68.7908C0.0492633 68.4274 -0.027643 68.0207 0.00884004 67.6161C0.0453231 67.2114 0.193754 66.825 0.437501 66.5L13.5625 49Z" fill="#CCF231"/>
<path fill-rule="evenodd" clip-rule="evenodd" d="M35 4.375C33.2764 4.375 31.5697 4.71448 29.9773 5.37408C28.3849 6.03367 26.938 7.00045 25.7192 8.21922C24.5005 9.43799 23.5337 10.8849 22.8741 12.4773C22.2145 14.0697 21.875 15.7764 21.875 17.5C21.875 19.2236 22.2145 20.9303 22.8741 22.5227C23.5337 24.1151 24.5005 25.562 25.7192 26.7808C26.938 27.9995 28.3849 28.9663 29.9773 29.6259C31.5697 30.2855 33.2764 30.625 35 30.625C38.481 30.625 41.8194 29.2422 44.2808 26.7808C46.7422 24.3194 48.125 20.981 48.125 17.5C48.125 14.019 46.7422 10.6806 44.2808 8.21922C41.8194 5.7578 38.481 4.375 35 4.375V4.375ZM17.5 17.5C17.5003 14.1322 18.4724 10.8361 20.2995 8.00708C22.1267 5.17808 24.7314 2.93637 27.801 1.55096C30.8706 0.165552 34.2747 -0.304713 37.605 0.196594C40.9352 0.697901 44.0501 2.14948 46.5758 4.37717C49.1015 6.60485 50.9308 9.514 51.8441 12.7555C52.7575 15.9971 52.7161 19.4333 51.725 22.6519C50.7338 25.8705 48.835 28.7348 46.2564 30.901C43.6778 33.0672 40.5288 34.4434 37.1875 34.8644V59.0625C37.1875 59.6427 36.957 60.1991 36.5468 60.6093C36.1366 61.0195 35.5802 61.25 35 61.25C34.4198 61.25 33.8634 61.0195 33.4532 60.6093C33.043 60.1991 32.8125 59.6427 32.8125 59.0625V34.8687C28.5817 34.3357 24.6911 32.2763 21.8716 29.0773C19.052 25.8783 17.4975 21.7598 17.5 17.4956V17.5Z" fill="#CCF231"/>
</g>
<defs>
<clipPath id="clip0_69_11">
<rect width="70" height="70" fill="white"/>
</clipPath>
</defs>
</svg>
