<svg width="80" height="80" viewBox="0 0 80 80" fill="none" xmlns="http://www.w3.org/2000/svg">
<path fill-rule="evenodd" clip-rule="evenodd" d="M18.23 8.23001C18.4622 7.9972 18.7381 7.81248 19.0418 7.68645C19.3456 7.56042 19.6712 7.49554 20 7.49554C20.3288 7.49554 20.6544 7.56042 20.9582 7.68645C21.2619 7.81248 21.5378 7.9972 21.77 8.23001L51.77 38.23C52.0028 38.4622 52.1875 38.7381 52.3136 39.0418C52.4396 39.3456 52.5045 39.6712 52.5045 40C52.5045 40.3288 52.4396 40.6544 52.3136 40.9582C52.1875 41.2619 52.0028 41.5378 51.77 41.77L21.77 71.77C21.3006 72.2394 20.6639 72.5032 20 72.5032C19.3361 72.5032 18.6994 72.2394 18.23 71.77C17.7606 71.3006 17.4968 70.6639 17.4968 70C17.4968 69.3361 17.7606 68.6994 18.23 68.23L46.465 40L18.23 11.77C17.9972 11.5378 17.8125 11.2619 17.6864 10.9582C17.5604 10.6545 17.4955 10.3288 17.4955 10C17.4955 9.67118 17.5604 9.34557 17.6864 9.04185C17.8125 8.73812 17.9972 8.46224 18.23 8.23001Z" fill="#EEFDFF"/>
<path fill-rule="evenodd" clip-rule="evenodd" d="M38.23 8.23001C38.4622 7.9972 38.7381 7.81248 39.0418 7.68645C39.3456 7.56042 39.6712 7.49554 40 7.49554C40.3288 7.49554 40.6544 7.56042 40.9582 7.68645C41.2619 7.81248 41.5378 7.9972 41.77 8.23001L71.77 38.23C72.0028 38.4622 72.1875 38.7381 72.3136 39.0418C72.4396 39.3456 72.5045 39.6712 72.5045 40C72.5045 40.3288 72.4396 40.6544 72.3136 40.9582C72.1875 41.2619 72.0028 41.5378 71.77 41.77L41.77 71.77C41.3006 72.2394 40.6639 72.5032 40 72.5032C39.3361 72.5032 38.6994 72.2394 38.23 71.77C37.7606 71.3006 37.4968 70.6639 37.4968 70C37.4968 69.3361 37.7606 68.6994 38.23 68.23L66.465 40L38.23 11.77C37.9972 11.5378 37.8125 11.2619 37.6864 10.9582C37.5604 10.6545 37.4955 10.3288 37.4955 10C37.4955 9.67118 37.5604 9.34557 37.6864 9.04185C37.8125 8.73812 37.9972 8.46224 38.23 8.23001Z" fill="#EEFDFF"/>
</svg>
