<svg width="30" height="30" viewBox="0 0 30 30" fill="none" xmlns="http://www.w3.org/2000/svg">
<g clip-path="url(#clip0_98_26)">
<path d="M11.25 15C12.7418 15 14.1726 14.4074 15.2275 13.3525C16.2824 12.2976 16.875 10.8668 16.875 9.375C16.875 7.88316 16.2824 6.45242 15.2275 5.39752C14.1726 4.34263 12.7418 3.75 11.25 3.75C9.75816 3.75 8.32742 4.34263 7.27252 5.39752C6.21763 6.45242 5.625 7.88316 5.625 9.375C5.625 10.8668 6.21763 12.2976 7.27252 13.3525C8.32742 14.4074 9.75816 15 11.25 15ZM15 9.375C15 10.3696 14.6049 11.3234 13.9017 12.0267C13.1984 12.7299 12.2446 13.125 11.25 13.125C10.2554 13.125 9.30161 12.7299 8.59835 12.0267C7.89509 11.3234 7.5 10.3696 7.5 9.375C7.5 8.38044 7.89509 7.42661 8.59835 6.72335C9.30161 6.02009 10.2554 5.625 11.25 5.625C12.2446 5.625 13.1984 6.02009 13.9017 6.72335C14.6049 7.42661 15 8.38044 15 9.375ZM22.5 24.375C22.5 26.25 20.625 26.25 20.625 26.25L1.875 26.25C1.875 26.25 0 26.25 0 24.375C0 22.5 1.875 16.875 11.25 16.875C20.625 16.875 22.5 22.5 22.5 24.375ZM20.625 24.3675C20.6231 23.9063 20.3363 22.5187 19.065 21.2475C17.8425 20.025 15.5419 18.75 11.25 18.75C6.95625 18.75 4.6575 20.025 3.435 21.2475C2.16375 22.5187 1.87875 23.9062 1.875 24.3675L20.625 24.3675Z" fill="#EEFDFF"/>
<path fill-rule="evenodd" clip-rule="evenodd" d="M22.7737 9.64875C22.8608 9.56144 22.9643 9.49217 23.0782 9.44491C23.1921 9.39765 23.3142 9.37332 23.4375 9.37332C23.5608 9.37332 23.6829 9.39765 23.7968 9.44491C23.9107 9.49217 24.0141 9.56144 24.1012 9.64875L26.25 11.7994L28.3987 9.64875C28.5748 9.47271 28.8135 9.37381 29.0625 9.37381C29.3114 9.37381 29.5502 9.47271 29.7262 9.64875C29.9023 9.82478 30.0012 10.0635 30.0012 10.3125C30.0012 10.5615 29.9023 10.8002 29.7262 10.9762L27.5756 13.125L29.7262 15.2737C29.9023 15.4498 30.0012 15.6885 30.0012 15.9375C30.0012 16.1865 29.9023 16.4252 29.7262 16.6012C29.5502 16.7773 29.3114 16.8762 29.0625 16.8762C28.8135 16.8762 28.5748 16.7773 28.3987 16.6012L26.25 14.4506L24.1012 16.6012C23.9252 16.7773 23.6864 16.8762 23.4375 16.8762C23.1885 16.8762 22.9498 16.7773 22.7737 16.6012C22.5977 16.4252 22.4988 16.1865 22.4988 15.9375C22.4988 15.6885 22.5977 15.4498 22.7737 15.2737L24.9243 13.125L22.7737 10.9762C22.6864 10.8892 22.6171 10.7857 22.5699 10.6718C22.5226 10.5579 22.4983 10.4358 22.4983 10.3125C22.4983 10.1892 22.5226 10.0671 22.5699 9.95318C22.6171 9.83929 22.6864 9.73583 22.7737 9.64875Z" fill="#EEFDFF"/>
</g>
<defs>
<clipPath id="clip0_98_26">
<rect width="30" height="30" fill="white"/>
</clipPath>
</defs>
</svg>
