<svg width="30" height="30" viewBox="0 0 30 30" fill="none" xmlns="http://www.w3.org/2000/svg">
<g clip-path="url(#clip0_98_24)">
<path d="M14 3.21429C14 2.93012 14.1054 2.6576 14.2929 2.45667C14.4804 2.25574 14.7348 2.14286 15 2.14286L29 2.14286C29.2652 2.14286 29.5196 2.25574 29.7071 2.45667C29.8946 2.6576 30 2.93012 30 3.21429V5.35714C30 5.6413 29.8946 5.91383 29.7071 6.11476C29.5196 6.31569 29.2652 6.42857 29 6.42857L15 6.42857C14.7348 6.42857 14.4804 6.31569 14.2929 6.11476C14.1054 5.91383 14 5.6413 14 5.35714V3.21429ZM4 0C2.93913 0 1.92172 0.451529 1.17157 1.25526C0.421427 2.05898 0 3.14907 0 4.28571L0 8.57143C0 9.70807 0.421427 10.7982 1.17157 11.6019C1.92172 12.4056 2.93913 12.8571 4 12.8571L8 12.8571C9.06087 12.8571 10.0783 12.4056 10.8284 11.6019C11.5786 10.7982 12 9.70807 12 8.57143L12 4.28571C12 3.14907 11.5786 2.05898 10.8284 1.25526C10.0783 0.451529 9.06087 0 8 0L4 0ZM4 17.1429C2.93913 17.1429 1.92172 17.5944 1.17157 18.3981C0.421427 19.2018 0 20.2919 0 21.4286L0 25.7143C0 26.8509 0.421427 27.941 1.17157 28.7447C1.92172 29.5485 2.93913 30 4 30H8C9.06087 30 10.0783 29.5485 10.8284 28.7447C11.5786 27.941 12 26.8509 12 25.7143V21.4286C12 20.2919 11.5786 19.2018 10.8284 18.3981C10.0783 17.5944 9.06087 17.1429 8 17.1429H4ZM5.708 9.33C5.61511 9.42978 5.50476 9.50894 5.38327 9.56296C5.26178 9.61697 5.13153 9.64477 5 9.64477C4.86847 9.64477 4.73822 9.61697 4.61673 9.56296C4.49524 9.50894 4.38489 9.42978 4.292 9.33L2.292 7.18714C2.19902 7.08753 2.12527 6.96926 2.07495 6.83911C2.02464 6.70895 1.99874 6.56945 1.99874 6.42857C1.99874 6.28769 2.02464 6.14819 2.07495 6.01804C2.12527 5.88788 2.19902 5.76962 2.292 5.67C2.38498 5.57038 2.49535 5.49136 2.61683 5.43745C2.73831 5.38354 2.86851 5.35579 3 5.35579C3.13149 5.35579 3.26169 5.38354 3.38317 5.43745C3.50465 5.49136 3.61502 5.57038 3.708 5.67L5 7.05643L8.292 3.52714C8.38498 3.42753 8.49535 3.34851 8.61683 3.29459C8.73831 3.24068 8.86851 3.21293 9 3.21293C9.13149 3.21293 9.26169 3.24068 9.38317 3.29459C9.50465 3.34851 9.61502 3.42753 9.708 3.52714C9.80098 3.62676 9.87473 3.74502 9.92505 3.87518C9.97536 4.00533 10.0013 4.14483 10.0013 4.28571C10.0013 4.42659 9.97536 4.56609 9.92505 4.69625C9.87473 4.82641 9.80098 4.94467 9.708 5.04429L5.708 9.33ZM5.708 26.4729C5.61511 26.5726 5.50476 26.6518 5.38327 26.7058C5.26178 26.7598 5.13153 26.7876 5 26.7876C4.86847 26.7876 4.73822 26.7598 4.61673 26.7058C4.49524 26.6518 4.38489 26.5726 4.292 26.4729L2.292 24.33C2.10423 24.1288 1.99874 23.8559 1.99874 23.5714C1.99874 23.2869 2.10423 23.014 2.292 22.8129C2.47977 22.6117 2.73445 22.4986 3 22.4986C3.26555 22.4986 3.52023 22.6117 3.708 22.8129L5 24.1993L8.292 20.67C8.47977 20.4688 8.73445 20.3558 9 20.3558C9.26555 20.3558 9.52023 20.4688 9.708 20.67C9.89577 20.8712 10.0013 21.1441 10.0013 21.4286C10.0013 21.7131 9.89577 21.986 9.708 22.1871L5.708 26.4729ZM14 20.3571C14 20.073 14.1054 19.8005 14.2929 19.5995C14.4804 19.3986 14.7348 19.2857 15 19.2857H29C29.2652 19.2857 29.5196 19.3986 29.7071 19.5995C29.8946 19.8005 30 20.073 30 20.3571V22.5C30 22.7842 29.8946 23.0567 29.7071 23.2576C29.5196 23.4585 29.2652 23.5714 29 23.5714H15C14.7348 23.5714 14.4804 23.4585 14.2929 23.2576C14.1054 23.0567 14 22.7842 14 22.5V20.3571ZM14 9.64286C14 9.3587 14.1054 9.08617 14.2929 8.88524C14.4804 8.68431 14.7348 8.57143 15 8.57143L25 8.57143C25.2652 8.57143 25.5196 8.68431 25.7071 8.88524C25.8946 9.08617 26 9.3587 26 9.64286C26 9.92702 25.8946 10.1995 25.7071 10.4005C25.5196 10.6014 25.2652 10.7143 25 10.7143L15 10.7143C14.7348 10.7143 14.4804 10.6014 14.2929 10.4005C14.1054 10.1995 14 9.92702 14 9.64286ZM14 26.7857C14 26.5016 14.1054 26.229 14.2929 26.0281C14.4804 25.8272 14.7348 25.7143 15 25.7143H25C25.2652 25.7143 25.5196 25.8272 25.7071 26.0281C25.8946 26.229 26 26.5016 26 26.7857C26 27.0699 25.8946 27.3424 25.7071 27.5433C25.5196 27.7443 25.2652 27.8571 25 27.8571H15C14.7348 27.8571 14.4804 27.7443 14.2929 27.5433C14.1054 27.3424 14 27.0699 14 26.7857Z" fill="#EEFDFF"/>
</g>
<defs>
<clipPath id="clip0_98_24">
<rect width="30" height="30" fill="white"/>
</clipPath>
</defs>
</svg>
